<svg width="35" height="35" viewBox="0 0 35 35" fill="none" xmlns="http://www.w3.org/2000/svg">
<path d="M30.0624 0.5H4.87492C2.46204 0.5 0.5 2.46204 0.5 4.87492V30.0624C0.5 32.4752 2.46204 34.4373 4.87492 34.4373H30.0624C32.4752 34.4373 34.4373 32.4752 34.4373 30.0624V4.87492C34.4373 2.46204 32.4752 0.5 30.0624 0.5Z" fill="black" stroke="white"/>
<rect x="1" y="1" width="32.9479" height="32.9479" rx="10" fill="white"/>
<path d="M17.4687 8.77783C12.6614 8.77783 8.75012 12.6891 8.75012 17.4965C8.75012 22.3038 12.6614 26.2151 17.4687 26.2151C22.2761 26.2151 26.1874 22.3038 26.1874 17.4965C26.1874 12.6891 22.2761 8.77783 17.4687 8.77783Z" fill="#121A1C"/>
<path d="M30.0624 1.02783H4.87492C2.73818 1.02783 1 2.76601 1 4.90275V30.0902C1 32.2269 2.73818 33.9651 4.87492 33.9651H30.0624C32.1991 33.9651 33.9373 32.2269 33.9373 30.0902V4.90275C33.9373 2.76601 32.1991 1.02783 30.0624 1.02783ZM17.4686 27.1833C12.1271 27.1833 7.78089 22.8376 7.78089 17.4956C7.78089 12.1536 12.1267 7.80784 17.4686 7.80784C22.8106 7.80784 27.1564 12.1536 27.1564 17.4956C27.1564 22.8376 22.8106 27.1833 17.4686 27.1833ZM28.1245 9.74574C26.5219 9.74574 25.2183 8.44209 25.2183 6.8396C25.2183 5.2371 26.522 3.93345 28.1245 3.93345C29.7269 3.93345 31.0306 5.2371 31.0306 6.8396C31.0306 8.44209 29.7269 9.74574 28.1245 9.74574Z" fill="#121A1C"/>
<path d="M28.1246 4.90234C27.0563 4.90234 26.1871 5.77143 26.1871 6.8398C26.1871 7.90818 27.0562 8.77727 28.1246 8.77727C29.193 8.77727 30.0621 7.90818 30.0621 6.8398C30.0621 5.77143 29.193 4.90234 28.1246 4.90234Z" fill="#121A1C"/>
</svg>
