<svg xmlns="http://www.w3.org/2000/svg" viewBox="0 0 731.28 684.76"><defs><style>.cls-1{fill:#fc4523;}</style></defs><g id="Layer_2" data-name="Layer 2"><g id="Layer_1-2" data-name="Layer 1"><path class="cls-1" d="M676.77,181.63a321.47,321.47,0,0,0-56.89-64.48q-6.5-5.64-13.34-11a324.13,324.13,0,0,0-63.49-38.64c-6-2.77-12.15-5.38-18.36-7.78-2.3-1-4.61-2-6.93-3-6.32-2.53-12.81-5-19.31-7.22S485.39,45.2,478.85,43s-13.05-4.44-19.54-6.77-13-4.53-19.57-6.7S426.59,25.33,420,23.39A334.64,334.64,0,0,0,379.5,14a187.14,187.14,0,0,0-41.65-2.22q-5.24.34-10.43,1l-2.52.31c-.82.11-1.65.17-2.47.25-1.65.11-3.3.21-5,.21a89.57,89.57,0,0,1-19.86-2.4C291,9.76,284.46,7.82,277.8,6a187.63,187.63,0,0,0-20.4-4.66A99.66,99.66,0,0,0,236.24.13,95.51,95.51,0,0,0,215.32,3.7a119.59,119.59,0,0,0-19.7,7.65c-.8.37-1.57.78-2.35,1.18s-1.57.79-2.34,1.21-1.54.82-2.32,1.26-1.57.88-2.33,1.36a80,80,0,0,0-8.72,6.27,186.17,186.17,0,0,0-15.11,14.53,169.86,169.86,0,0,1-14.66,14,78.53,78.53,0,0,1-16.67,10.63,93.47,93.47,0,0,1-18.9,6.31c-6.55,1.53-13.32,2.62-20.16,4.1a96.83,96.83,0,0,0-20.29,6.45A73.3,73.3,0,0,0,53.82,90.44a102.74,102.74,0,0,0-14.2,15.83,88.69,88.69,0,0,0-10.55,18.55,83,83,0,0,0-5.59,20.64,87.16,87.16,0,0,0-.25,21.35c.19,1.77.45,3.53.76,5.29.14.87.32,1.76.49,2.62l.49,2.49c.62,3.32,1.17,6.64,1.58,10A78.13,78.13,0,0,1,26.77,207a41.88,41.88,0,0,1-.9,4.75,38,38,0,0,1-1.43,4.58A42.65,42.65,0,0,1,20,224.87c-1.81,2.74-3.9,5.39-6,8.17a83.91,83.91,0,0,0-6,8.8q-1.35,2.34-2.49,4.82c-.73,1.65-1.41,3.33-2,5.05A64.63,64.63,0,0,0,1,262.16a103.12,103.12,0,0,0-.77,21.11c.21,3.49.5,7,.91,10.42S2,300.57,2.6,304a131.1,131.1,0,0,0,5.17,20.33,175.23,175.23,0,0,0,8,19.31c6,12.55,13.1,24.41,19.84,36.33s13.12,24,16.54,37.09a116.4,116.4,0,0,0,7.35,19.67A121.44,121.44,0,0,0,70.3,454.71c8.18,11.33,17.78,21.37,27,31.54a381,381,0,0,1,26.23,31.38c1,1.37,2,2.73,3,4.13l2.36,3.38.56.81,5.91,8.49c4,5.64,8,11.27,12.08,16.82s8.33,11,12.69,16.44,8.91,10.64,13.64,15.74a285.9,285.9,0,0,0,30.44,28.41c5.41,4.35,10.93,8.54,16.6,12.51s11.41,7.83,17.27,11.48,11.77,7.2,17.77,10.6q4.21,2.4,8.47,4.69,4.94,2.46,10,4.73A323.52,323.52,0,0,0,676.77,181.63ZM112,437.25q2.16,7.58,4.7,15.06c1.69,5,3.5,9.94,5.47,14.83a282.94,282.94,0,0,0,13.37,28.59c3.48,6.55,7.2,12.89,10.87,19.11l-.42.25L144.3,513l-2.73-3.44c-.91-1.15-1.83-2.29-2.72-3.45-3.66-4.57-7.19-9.22-10.7-13.88S121.3,482.81,118.1,478s-6.19-9.81-8.9-14.93a174,174,0,0,1-7.38-15.76c-2.22-5.38-4.2-10.9-6.19-16.45s-3.95-11.15-6-16.73-4.14-11.16-6.29-16.72l-1.63-4.16-1.67-4.14c-.53-1.35-1.17-2.84-1.8-4.24s-1.3-2.78-2-4.14c-2.71-5.44-5.63-10.62-8.4-15.81s-5.44-10.34-7.79-15.58a105.67,105.67,0,0,1-5.84-15.93A62.15,62.15,0,0,1,52,317.14a48,48,0,0,1,2.61-15.75,55.08,55.08,0,0,1,7.53-14.25c.39-.55.8-1.1,1.23-1.64l1.33-1.73c.49-.63,1-1.26,1.44-1.91s.93-1.29,1.37-1.95a75.64,75.64,0,0,0,4.9-8.23,77.43,77.43,0,0,0,6.45-18,111,111,0,0,0,2.4-18.57c.62-12.28-.12-24.15.38-35.5a94.47,94.47,0,0,1,2-16.51,61,61,0,0,1,2.23-7.75c.44-1.26,1-2.5,1.47-3.72.27-.61.54-1.21.83-1.82l.93-1.86a74.18,74.18,0,0,1,8.74-13.78,59.5,59.5,0,0,1,5.43-5.9,61.58,61.58,0,0,1,6.17-5.19c8.7-6.47,19.45-11.21,30.05-17.44a130.58,130.58,0,0,0,15.41-10.46c1.21-1,2.45-2,3.61-3l1.76-1.55L162,109c2.28-2.14,4.38-4.3,6.49-6.5,8.41-8.8,15.84-18.14,23.61-26.58a125.05,125.05,0,0,1,12.26-11.72A84.6,84.6,0,0,1,218.13,55,87.29,87.29,0,0,1,233.6,48.6l2-.6c.68-.2,1.39-.39,2.08-.58,1.39-.38,2.76-.72,4.13-1.05A73.83,73.83,0,0,1,250,44.93a59.14,59.14,0,0,1,8.2-.34c.69,0,1.37.06,2.06.09l2.22.12,4.48.26c6,.27,12,.43,18,.35s12.07-.4,18.08-1c3-.31,6-.73,9-1.16s5.92-1,8.83-1.46,5.79-1,8.65-1.4,5.7-.71,8.56-.91a114,114,0,0,1,17.22.28c5.77.5,11.55,1.33,17.31,2.33s11.53,2.12,17.25,3.46l4.33,1c1.59.36,3.12.6,4.65.82,3,.42,6,.67,9,.93l17.73,1.37c5.87.51,11.7,1.09,17.45,1.91A111.39,111.39,0,0,1,459.76,55c.66.21,1.29.4,2,.64l2,.71c1.37.46,2.71,1,4.06,1.51s2.67,1.11,4,1.66,2.65,1.17,4,1.79c4.66,2.15,9.23,4.52,13.95,6.81-2.05-.72-4.1-1.43-6.19-2.07A142.79,142.79,0,0,0,452,60.15c-5.34-.44-10.66-.65-15.93-.76s-10.49-.16-15.68-.17-10.36,0-15.51-.11l-15.43-.31-7.7-.13-3.85,0c-1.28,0-2.59,0-3.88,0-5.18.1-10.33.27-15.47.48-10.27.4-20.51,1-30.65,1.34-2.53.08-5.06.17-7.54.2l-1.85,0-1.81,0c-.61,0-1.14,0-1.71-.06h-.42l-.5,0-1-.06a92.8,92.8,0,0,0-16.47.33A66.33,66.33,0,0,0,280.09,65a65,65,0,0,0-15,8.37,102.82,102.82,0,0,0-12.36,11C249,88.15,245.53,92,242.11,95.77s-6.77,7.36-10.25,10.71a119.9,119.9,0,0,1-10.78,9.31,92.85,92.85,0,0,1-11.75,7.57c-2,1.12-4.13,2.14-6.24,3.12s-4.28,1.86-6.48,2.68-4.43,1.57-6.68,2.28l-1.71.49-1.9.57a44.22,44.22,0,0,0-4.54,1.65,57.11,57.11,0,0,0-8.12,4.25,75,75,0,0,0-7.16,5,101.66,101.66,0,0,0-12.32,11.64c-1.88,2.08-3.68,4.22-5.39,6.45-.85,1.1-1.71,2.28-2.5,3.39l-1.13,1.6-.62.87-.31.44-.32.49a48.85,48.85,0,0,0-7.27,17.41,99.18,99.18,0,0,0-1.67,16.9c-.16,5.19-.27,10-.8,14.57q-.39,3.44-1,6.76c-.43,2.22-1,4.39-1.64,6.56l-.5,1.61c-.18.51-.34,1-.51,1.49-.37,1-.74,2-1.17,2.9a40.49,40.49,0,0,1-3,5.56,84.63,84.63,0,0,1-8.71,10.85,136.37,136.37,0,0,0-10.45,12.56A62,62,0,0,0,99.11,281a72.63,72.63,0,0,0-3.58,16.69c-.3,2.77-.45,5.52-.5,8.26s0,5.44.11,8.13c.23,5.38.81,10.67,1.49,15.9.35,2.62.76,5.22,1.19,7.81l.67,3.88.58,3.63c1.46,9.72,1.91,19.76,2.39,30,.25,5.12.46,10.3.92,15.58.24,2.65.51,5.3.93,8l.32,2,.36,1.93.71,3.85c1,5.13,2.12,10.24,3.31,15.33S110.56,432.2,112,437.25Zm19.86,80.67c-1-1.42-2.07-2.8-3.12-4.19-2.1-2.79-4.28-5.5-6.51-8.17-1.11-1.33-2.26-2.65-3.38-4s-2.31-2.6-3.48-3.88c-4.66-5.14-9.47-10.11-14.31-15-9.64-9.8-19.37-19.47-27.32-30.47A115.93,115.93,0,0,1,63.29,434.9a111.33,111.33,0,0,1-7-18.94c-.93-3.32-1.93-6.75-3.19-10s-2.59-6.51-4.07-9.66c-2.92-6.33-6.23-12.42-9.59-18.45-6.75-12-13.76-23.8-19.58-36.12a171.29,171.29,0,0,1-7.64-18.85,123.46,123.46,0,0,1-4.86-19.63c-.55-3.33-1-6.73-1.34-10.1S5.36,286.4,5.19,283a97.66,97.66,0,0,1,.94-20,58,58,0,0,1,2.41-9.54c.54-1.54,1.16-3.05,1.84-4.53s1.46-2.91,2.29-4.32a81.88,81.88,0,0,1,5.71-8.17c2.07-2.69,4.28-5.41,6.3-8.38a48.63,48.63,0,0,0,5.17-9.63,42.13,42.13,0,0,0,1.7-5.24,47.41,47.41,0,0,0,1.09-5.35,82.47,82.47,0,0,0,0-21.35c-.4-3.5-1-7-1.57-10.4l-.49-2.58c-.15-.82-.31-1.62-.44-2.45-.27-1.63-.51-3.27-.68-4.91a80.47,80.47,0,0,1,.3-19.8A76.71,76.71,0,0,1,35,127.27a82,82,0,0,1,9.83-17.2A95.88,95.88,0,0,1,58.11,95.28a67.59,67.59,0,0,1,16.38-10.8,90.17,90.17,0,0,1,18.94-6c6.6-1.44,13.42-2.55,20.25-4.15a99.58,99.58,0,0,0,20.16-6.76,84,84,0,0,0,18-11.5c11-9,19.45-20.17,29.66-28.66a71.93,71.93,0,0,1,8-5.8c.69-.45,1.41-.83,2.12-1.25s1.46-.81,2.2-1.22,1.48-.8,2.23-1.18,1.49-.78,2.25-1.14A115.79,115.79,0,0,1,217,9.39,89.75,89.75,0,0,1,236.58,5.9a93.44,93.44,0,0,1,20,1,181.41,181.41,0,0,1,19.83,4.38c6.61,1.76,13.26,3.68,20.11,5.15a94.63,94.63,0,0,0,21,2.37c1.78,0,3.57-.12,5.34-.26.89-.1,1.78-.17,2.66-.29l2.6-.35c3.34-.46,6.71-.82,10.08-1.06a184.72,184.72,0,0,1,40.59,1.89,305.11,305.11,0,0,1,39.9,9c13.15,3.82,26.09,8.35,38.95,13.12,6.43,2.38,12.81,4.92,19.11,7.67s12.56,5.59,18.86,8.33q4.72,2.09,9.48,4,2.51,1.05,5,2.05h0l-1.71-.57-1.92-.7-1.94-.76-8-3.24c-5.45-2.19-11.13-4.25-16.88-6.14l-4.32-1.4c-1.45-.44-2.89-.91-4.35-1.33s-2.9-.88-4.36-1.29l-2.19-.63c-.73-.21-1.52-.4-2.28-.6a119.86,119.86,0,0,0-18.2-2.72c-6-.51-12-.77-17.92-1s-11.86-.37-17.7-.7c-2.92-.16-5.82-.41-8.65-.75-1.4-.19-2.8-.38-4.09-.69l-4.32-1c-2.89-.68-5.81-1.3-8.72-2-1.45-.32-2.92-.6-4.38-.91L376,36.17l-2.21-.41c-5.87-1.1-11.8-2-17.81-2.66a131.68,131.68,0,0,0-18.23-.63c-3.05.14-6.09.39-9.1.74s-6,.79-8.9,1.23-5.82.85-8.71,1.22-5.76.66-8.64.86c-5.77.43-11.56.56-17.37.44s-11.62-.44-17.44-.89l-4.37-.4-2.2-.19c-.79-.06-1.58-.14-2.37-.18a68.9,68.9,0,0,0-9.53.12,79.4,79.4,0,0,0-9.33,1.36c-1.52.31-3,.64-4.5,1-.75.18-1.47.35-2.22.55l-2.24.59a97.07,97.07,0,0,0-17.52,6.58,93.28,93.28,0,0,0-8.22,4.61c-2.65,1.69-5.23,3.48-7.69,5.41A134.75,134.75,0,0,0,183.66,68c-4.24,4.36-8.24,8.82-12.17,13.22S163.65,89.86,159.61,94c-2,2-4.08,4.08-6.15,6l-1.55,1.4-1.59,1.35c-1,.92-2.16,1.77-3.24,2.64a117.64,117.64,0,0,1-14,9.34c-4.93,2.85-10.13,5.47-15.45,8.3-2.65,1.41-5.35,2.89-8,4.51a93.09,93.09,0,0,0-7.89,5.25,74.86,74.86,0,0,0-7.4,6.21c-.6.55-1.17,1.12-1.73,1.71s-1.15,1.15-1.68,1.76c-1.08,1.21-2.17,2.41-3.15,3.69a86.94,86.94,0,0,0-10.18,16.16l-1,2.12c-.34.73-.67,1.48-1,2.22-.63,1.5-1.23,3-1.75,4.55a75.26,75.26,0,0,0-2.58,9.31,107.56,107.56,0,0,0-2.11,18.7c-.43,12.3.56,24.1.15,35.47a98.66,98.66,0,0,1-1.85,16.62,65.67,65.67,0,0,1-5.16,15.44,64.55,64.55,0,0,1-4,7.1c-.37.57-.76,1.14-1.15,1.69s-.79,1.12-1.2,1.67l-1.33,1.81c-.48.63-.94,1.28-1.39,1.94a66,66,0,0,0-8.59,17.23,58.65,58.65,0,0,0-2.75,19.16,67.42,67.42,0,0,0,.91,9.55,82.48,82.48,0,0,0,2.12,9.2c3.51,12,9.26,22.86,15.05,33.24,2.9,5.2,5.83,10.31,8.46,15.43q1,1.92,1.89,3.84c.61,1.29,1.15,2.52,1.72,3.91l1.71,4.06,1.67,4.07c4.47,10.87,8.38,21.94,12.42,33.09q3,8.37,6.34,16.75c2.24,5.58,4.63,11.13,7.22,16.58q1,2.05,2,4.08c.65,1.36,1.34,2.7,2,4.05s1.4,2.67,2.12,4l1.07,2,1.11,2q4.39,7.9,9.23,15.51,7.55,11.87,15.89,23.07h0l-.18.1C133.71,520.49,132.78,519.21,131.85,517.92Zm348,117.3a284.32,284.32,0,0,1-251.5-54.72,280.94,280.94,0,0,1-64.65-74.6c-.14-.22-.54-.89-.54-.89h0c-4.05-6.23-8.11-12.3-12-18.4-5.4-8.43-10.49-17-15.05-25.82a211.89,211.89,0,0,1-11.83-27.41q-2.44-7.08-4.4-14.33c-1.28-4.83-2.39-9.72-3.36-14.63l-.68-3.7-.33-1.85-.28-1.77c-.36-2.34-.6-4.78-.82-7.23-.41-4.92-.62-10-.81-15.08-.38-10.21-.74-20.65-2.12-31.22l-1.12-7.67c-.32-2.47-.61-4.94-.85-7.4a140.36,140.36,0,0,1-.72-14.71q0-3.65.26-7.22c.16-2.38.41-4.74.77-7a58.06,58.06,0,0,1,3.61-13.09,46.27,46.27,0,0,1,6.74-11.26A121.49,121.49,0,0,1,130,264.72a99.33,99.33,0,0,0,11.07-12.58,59.44,59.44,0,0,0,4.69-7.72c.69-1.36,1.31-2.74,1.88-4.14.29-.7.55-1.42.82-2.12l.69-2a89.83,89.83,0,0,0,3.78-16.65c.74-5.58,1-11,1.2-16.07a81.34,81.34,0,0,1,1.42-13.61,30.4,30.4,0,0,1,4.52-10.74l.2-.31.25-.35.49-.68,1.09-1.54c.7-1,1.35-1.87,2.07-2.79,1.41-1.82,2.89-3.61,4.43-5.34a82.65,82.65,0,0,1,9.93-9.47,48.48,48.48,0,0,1,10.78-6.78,26.59,26.59,0,0,1,2.66-1l3.73-1.18c2.61-.88,5.22-1.8,7.79-2.85a111.15,111.15,0,0,0,15-7.38,109.36,109.36,0,0,0,13.67-9.62c8.63-7,15.78-15.35,22.32-23.34S267,90.62,274,84.76a51.17,51.17,0,0,1,11.34-7.26,53,53,0,0,1,13-3.94,75.28,75.28,0,0,1,14.17-1l1.9,0c.71,0,1.45,0,2.12,0l2,0,2,0c2.64-.08,5.23-.21,7.81-.34,10.31-.56,20.5-1.28,30.68-1.86,5.08-.28,10.16-.54,15.21-.72s10.2-.42,15.28-.65,10.19-.48,15.27-.54,10.15.06,15.19.41A135.08,135.08,0,0,1,449.53,74q7.1,2.07,14,4.72c4.59,1.74,9.14,3.55,13.73,5.37,1.14.47,2.29.93,3.44,1.38s2.29,1,3.45,1.38l3.47,1.39,3.61,1.41q4.33,1.67,8.62,3.28h0l.72.28c29.72,10.22,56.51,25.38,81.34,44.7a280.69,280.69,0,0,1,99.81,151.34C721.41,440.27,630.88,595.48,479.85,635.22Z"/></g></g></svg>