<svg width="99" height="89" viewBox="0 0 99 89" fill="none" xmlns="http://www.w3.org/2000/svg">
<path d="M48.7597 0C54.1903 0.195973 59.574 0.664338 64.8567 1.93632C69.7104 3.10599 74.2067 5.12489 78.3924 7.85249C81.7707 10.0567 84.8227 12.7245 87.4589 15.7777C90.4605 19.2413 92.91 23.1471 94.721 27.3574C98.7256 36.7347 99.3414 47.2135 96.4627 56.9954C93.584 66.7772 87.3903 75.252 78.9446 80.9653C72.9744 85.0438 66.0877 87.5814 58.8986 88.3519C52.7815 89.0347 46.7753 88.3519 40.9122 86.4859C36.8188 85.1868 32.9387 83.2926 29.3966 80.8643C23.9056 77.1149 19.5634 72.3215 16.1752 66.6272C14.4398 63.711 12.7142 60.7899 10.9443 57.8947C10.3613 56.9407 9.729 55.9917 8.97222 55.1708C8.20928 54.3302 7.27378 53.6351 6.39991 52.8955C4.85555 51.5878 3.43197 50.1692 2.33254 48.4584C0.710525 45.9231 0.223673 43.1684 0.678479 40.2004C0.963195 38.3257 1.15054 36.4313 1.27379 34.5394C1.46237 31.6688 1.01866 28.8389 0.298858 26.0817C-0.54543 22.8512 0.431972 20.3221 2.8157 18.1799C4.49934 16.6664 6.43812 15.5386 8.37937 14.4145C11.753 12.4726 14.784 9.98868 17.351 7.06244C19.4019 4.72062 21.6883 2.7806 24.8066 2.03985C27.0443 1.49751 29.3263 1.15801 31.625 1.02547C35.3017 0.827033 38.9796 0.670501 42.655 0.460969C44.6924 0.345111 46.7248 0.156532 48.7597 0ZM24.8115 74.7632L24.8042 74.7706L24.6316 74.598L24.2902 74.2554H24.2963L24.639 74.5882L24.8115 74.7632ZM22.9122 72.6901L23.0885 72.8663L23.335 73.2743L23.4311 73.1893L23.0761 72.8737L22.8999 72.6975L22.7261 72.5249L22.5535 72.3524C22.4032 72.1059 22.2664 71.8594 22.1 71.6326C21.1324 70.3101 20.0959 69.0331 19.1961 67.6675C16.817 64.0285 14.8289 60.1483 13.2651 56.0915C12.077 53.0385 10.9628 49.9559 9.89416 46.8598C9.47532 45.5982 9.35136 44.2574 9.53179 42.9403C9.9336 39.6569 10.2923 36.3635 10.1431 33.0517C10.0877 31.8192 9.84855 30.6027 9.75611 29.3738C9.68339 28.4063 9.54535 27.4018 9.7179 26.4638C10.3835 22.8451 12.2101 19.8919 15.3358 17.9174C17.6973 16.426 19.5782 14.5168 21.1879 12.2736C22.524 10.4137 24.072 8.79045 26.2018 7.77115C28.3317 6.75184 30.5995 6.25636 32.929 6.03327C34.4155 5.89153 35.9229 5.92234 37.3994 5.71404C39.4479 5.42563 41.4915 5.05956 43.5067 4.59859C48.7117 3.40673 53.9697 3.11092 59.2831 3.4548C61.6964 3.61133 64.1023 3.80114 66.4392 4.4852C67.8185 4.88947 69.2001 5.28512 70.5806 5.68323L70.6545 5.7276L70.5732 5.69185C67.7051 4.00451 64.71 2.58463 61.4253 1.97206C58.8283 1.4889 56.1969 1.15735 53.5679 0.900984C51.7063 0.720691 49.8344 0.672091 47.966 0.755546C43.1381 0.973705 38.3165 1.288 33.4923 1.58258C30.7055 1.75143 27.9286 1.97576 25.2158 2.7276C23.0318 3.33401 21.0979 4.31634 19.5462 6.00738C18.4763 7.17336 17.3584 8.29497 16.2602 9.43507C13.9061 11.8817 11.1403 13.781 8.24872 15.5337C6.78786 16.3969 5.3738 17.337 4.01249 18.35C1.42416 20.3221 0.272975 22.8266 1.19861 26.1433C1.87281 28.5591 2.23271 31.0612 2.11931 33.5718C2.01208 35.9531 1.77051 38.3356 1.43402 40.6959C1.00264 43.7131 1.67437 46.3964 3.43197 48.8541C4.68299 50.6067 6.2668 52.013 7.92949 53.3528C8.75406 54.0159 9.57 54.7296 10.2331 55.5467C13.0852 59.0582 15.5244 62.8643 17.934 66.6876C19.2466 68.7743 20.8514 70.6009 22.5696 72.345L22.7421 72.5175L22.9122 72.6901ZM54.2334 6.04682C52.2885 6.22677 50.3275 6.30196 48.4035 6.61133C44.8131 7.19062 41.3263 8.07188 38.192 10.0982C36.3863 11.2666 34.3921 12.1442 32.2191 12.4979C31.7704 12.5719 31.3403 12.7678 30.9052 12.917C28.3489 13.7798 26.5519 15.3069 25.8691 18.0875C25.1468 21.0308 23.1945 23.1298 20.6345 24.6668C19.8065 25.1449 19.1394 25.8583 18.7179 26.7165C18.3321 27.488 18.0133 28.2913 17.7651 29.1174C17.0811 31.5197 16.7853 34.0279 15.819 36.3574C15.6104 36.8629 15.4482 37.3865 15.3346 37.9215C14.5507 41.6326 14.9217 45.35 15.7499 48.9601C16.5129 52.2879 17.754 55.5024 18.819 58.755C19.2109 59.9555 19.5831 61.1843 20.1661 62.2949C22.1977 66.1434 24.8646 69.6212 28.0544 72.5816C30.984 75.3525 34.3351 77.6406 37.9824 79.3606C45.544 82.9053 53.4298 83.9209 61.6323 82.3297C68.606 80.974 74.7428 77.8926 80.0144 73.1584C85.1911 68.5007 88.8813 62.8409 90.9667 56.1729C92.5394 51.1416 93.1742 45.997 92.6011 40.7489C92.0168 35.3972 90.4367 30.35 87.751 25.6589C84.0682 19.2276 79 14.205 72.475 10.7058C66.8696 7.67772 60.6044 6.07755 54.2334 6.04682ZM59.1919 4.47657L59.2042 4.35332C59.1007 4.33853 58.9984 4.32251 58.8949 4.30895C58.7531 4.29046 58.6102 4.27567 58.4672 4.25595C55.4647 3.85044 52.4512 3.63968 49.4426 4.11791C46.6878 4.55792 43.9491 5.09654 41.2031 5.59695C39.3925 5.92357 37.5868 6.27854 35.77 6.56572C33.7265 6.88988 31.6521 7.04518 29.6332 7.47041C27.464 7.92644 25.4857 8.90015 23.9734 10.5838C22.9566 11.7153 22.0186 12.9256 21.1028 14.1384C19.8247 15.8344 18.3494 17.3159 16.5425 18.4277C14.7097 19.5542 13.2146 20.9938 12.2052 22.8919C11.1427 24.8825 10.5388 26.9691 10.89 29.2801C11.1168 30.7592 11.3449 32.2542 11.2992 33.7345C11.2154 36.4042 10.9406 39.0677 10.7187 41.7312C10.5955 43.1339 10.2824 44.5365 10.6744 45.9342C11.1242 47.5365 11.5458 49.1585 12.1213 50.7201C13.3736 54.1281 15.0116 57.366 16.7754 60.5373C17.208 61.3138 17.7171 62.0484 18.2175 62.7854C18.5872 63.3265 19.0137 63.8257 19.3822 64.368C19.7853 64.9596 20.107 65.6092 20.5396 66.1774C21.4467 67.3668 22.3798 68.5389 23.3473 69.679C23.9451 70.384 24.6279 71.0175 25.2725 71.6831L25.4044 71.5598C24.9114 70.93 24.4184 70.3014 23.9254 69.6679C22.3095 67.5726 20.8046 65.4083 19.8038 62.9198C18.6341 60.011 17.3387 57.154 16.148 54.2538C15.1891 51.912 14.1316 49.601 13.8062 47.0496C13.63 45.6507 13.3736 44.2616 13.2491 42.859C13.0988 41.1692 13.0026 39.4584 13.4217 37.7908C14.229 34.5554 15.0351 31.3175 15.9373 28.1068C16.5868 25.7982 17.7959 23.8607 20.017 22.6725C21.1682 22.0562 22.0692 21.1269 22.8395 20.0534C23.6443 18.9305 24.1004 17.6659 24.5231 16.3829C25.0655 14.7436 26.1131 13.5542 27.586 12.6853C28.9535 11.8771 30.4573 11.3257 32.0231 11.0583C34.1443 10.6886 36.1151 9.91206 38.0404 8.98149C39.2039 8.41822 40.3538 7.79949 41.5691 7.3792C43.6053 6.66925 45.6956 6.11954 47.7478 5.45644C50.5827 4.5419 53.4976 4.33606 56.4434 4.34716C57.3616 4.33976 58.2774 4.42727 59.1919 4.47657Z" fill="white"/>
<path d="M61.1776 49.0884H57.2421C58.5979 48.016 58.2503 46.6689 58.2626 45.4166C58.2873 42.7433 58.27 40.0674 58.2626 37.3928C58.2626 36.0259 58.2626 36.0259 57.3665 34.913C57.7141 34.8883 57.973 34.8526 58.2293 34.8538C59.9191 34.8538 61.6102 34.8673 63.3012 34.8772C64.5757 34.8846 65.8341 34.966 66.9532 35.6808C69.0793 37.0366 68.9955 40.431 66.7992 41.6845C66.4294 41.8928 66.0498 42.0654 65.542 42.3217C67.0851 43.1216 67.7001 44.47 68.2388 45.8751C68.6393 46.9191 68.9536 48.0321 70.2182 48.3821C69.6586 49.3681 68.4545 49.5395 67.6225 48.7519C67.1985 48.3513 66.8768 47.8041 66.6229 47.2728C66.2285 46.4446 65.9228 45.5719 65.5937 44.7128C64.832 42.7272 64.2379 42.4585 62.2659 43.2338C60.7868 43.8143 60.2137 44.6549 60.2039 46.2609V46.4335C60.21 47.931 60.21 47.931 61.1776 49.0884ZM60.2593 44.0719C60.8608 43.6442 61.3193 43.2461 61.8407 42.9626C62.3916 42.6656 63.0103 42.4931 63.5872 42.2391C64.0402 42.0574 64.4772 41.8381 64.8937 41.5834C66.8497 40.2991 66.8522 37.0958 64.8937 35.9409C63.4306 35.0781 61.8591 35.3949 60.2544 35.4627L60.2593 44.0719Z" fill="white"/>
<path d="M23.2105 41.9321C23.2166 37.8438 26.3941 34.6897 30.5108 34.686C34.5227 34.686 37.7963 37.9202 37.7951 41.8902C37.7951 46.0488 34.5769 49.2287 30.3838 49.2164C26.3793 49.2041 23.2031 45.9798 23.2105 41.9321ZM35.7035 41.9555C35.7035 39.7086 35.0157 37.8882 33.6562 36.5324C31.8579 34.7501 29.2314 34.7748 27.3703 36.4831C24.6858 38.9481 24.5675 44.6289 27.247 47.3651C29.081 49.2398 31.6718 49.3187 33.5601 47.5056C35.1303 46.0057 35.7109 44.0854 35.7035 41.9555Z" fill="white"/>
<path d="M77.2313 49.2188C73.2391 49.3556 69.9335 45.907 69.915 41.9567C69.8965 37.9584 73.2244 34.6589 77.2412 34.6934C81.4651 34.7291 84.5255 37.9152 84.5378 41.9653C84.5489 46.0894 81.1323 49.3482 77.2313 49.2188ZM82.4745 42.3955C82.4561 40.1005 81.9815 38.3972 80.7884 36.9156C80.3682 36.3833 79.8332 35.9527 79.2232 35.6561C78.6133 35.3595 77.9442 35.2045 77.266 35.2027C76.5878 35.2009 75.9179 35.3524 75.3064 35.6458C74.6949 35.9392 74.1576 36.367 73.7346 36.8972C71.9253 39.1761 71.6393 41.7398 72.3727 44.4773C72.7441 45.9734 73.6628 47.276 74.9474 48.128C75.6429 48.6003 76.4672 48.8464 77.3077 48.8325C78.1482 48.8186 78.964 48.5454 79.6434 48.0504C81.7165 46.5578 82.4154 44.407 82.4745 42.3955Z" fill="white"/>
<path d="M49.4734 47.2493V46.161C49.4734 44.8693 49.4833 43.5726 49.4636 42.2871C49.4377 40.5615 49.4438 38.836 49.3206 37.1104C49.27 36.4005 48.9225 35.7115 48.6871 34.9362C49.27 34.7169 49.9627 34.8524 50.7429 34.8758C50.6743 35.0456 50.594 35.2103 50.5026 35.3689C49.9812 36.1084 49.853 36.949 49.8543 37.8339C49.8617 41.2283 49.8617 44.6232 49.8543 48.0184C49.8543 48.3771 49.7865 48.7345 49.747 49.1277H48.0301C45.4393 44.951 42.8436 40.7698 40.2429 36.5841L40.0876 36.6273C40.0557 36.8385 40.0347 37.0512 40.0248 37.2645C40.0248 40.0266 40.0248 42.7887 40.042 45.5508C40.0334 46.1558 40.0976 46.7595 40.2331 47.3491C40.3773 47.9087 40.6842 48.4276 40.9578 49.05H38.8231C38.8231 48.9773 38.7775 48.8664 38.8144 48.8245C39.4812 48.0591 39.6427 47.1322 39.6464 46.1671C39.6563 43.0858 39.6267 40.0106 39.6624 36.933C39.6723 36.1355 39.3173 35.5772 38.6764 34.9412H41.5383L49.2405 47.3084L49.4734 47.2493Z" fill="white"/>
<path d="M52.3218 34.9004H55.9048C54.8226 35.8347 55.042 36.9538 55.0358 38.0236C55.0358 40.6391 55.0358 43.2549 55.0358 45.8712C55.0358 47.6966 55.0358 47.6966 55.8037 49.0758H52.132C53.4582 47.8642 53.0453 46.3753 53.0699 44.9924C53.1155 42.4632 53.0798 39.9328 53.0847 37.4037C53.0847 36.5261 53.0638 35.6646 52.2355 35.068L52.3218 34.9004Z" fill="white"/>
<path d="M46.2207 55.8227C45.3776 56.6116 45.8115 57.6149 45.7917 58.4813C45.7708 59.3293 45.3739 60.3523 46.4499 60.9341C45.8201 61.4271 45.2753 61.4012 44.9438 60.796C44.7653 60.439 44.6636 60.0485 44.6455 59.6498C44.5962 58.9632 44.6714 58.2669 44.6122 57.5816C44.5629 57.0121 44.3965 56.4526 44.2511 55.7328C44.2375 55.7426 44.3854 55.6317 44.5395 55.5294C45.3604 54.9834 45.4208 53.9 44.6627 53.2578C44.3676 53.024 44.0111 52.8805 43.6363 52.8447C43.2615 52.8088 42.8843 52.8821 42.5502 53.0557C41.876 53.4119 41.5752 54.0121 41.5543 54.7504C41.5383 55.3149 41.9043 55.6218 42.3628 55.8683C42.7794 56.0927 43.1738 56.3614 43.7186 56.6892L42.8139 57.3708C42.5563 57.1477 42.3345 56.9752 42.1385 56.7792C41.9425 56.5832 41.7687 56.3552 41.4779 56.0273L40.3686 56.6904C40.5017 57.4189 40.975 57.5298 41.399 57.6863C41.9105 57.8749 42.4553 57.992 42.9409 58.2311C43.519 58.5158 44.0502 58.925 43.9799 59.672C43.9097 60.4189 43.4388 60.8687 42.7597 61.0894C41.6825 61.4419 40.6718 61.2903 39.6784 60.5754C39.6093 60.1674 39.5354 59.7311 39.4602 59.2948L39.6771 59.1851C39.8448 59.4131 40.0247 59.6313 40.1763 59.8692C40.5325 60.4263 40.9935 60.8367 41.6677 60.9378C42.5194 61.061 43.0962 60.5286 43.0235 59.5697C42.6537 59.4218 42.2408 59.248 41.8217 59.084C41.3411 58.8955 40.8357 58.7513 40.3797 58.5208C39.8337 58.2471 39.4713 57.8022 39.5255 57.1453C39.5761 56.529 39.9766 56.174 40.5116 55.9497C40.747 55.8511 40.9885 55.7697 41.2622 55.6674C41.2511 55.4505 41.2425 55.2558 41.2314 55.061C41.1586 53.6954 41.9105 52.7106 43.164 52.5306C44.3041 52.3679 45.4257 53.2455 45.6919 54.5187C45.7498 54.7997 45.7252 55.1042 45.8238 55.3667C45.8903 55.559 46.1023 55.6958 46.2207 55.8227Z" fill="white"/>
<path d="M58.0382 56.2098C58.2046 55.3138 58.2601 54.5114 57.6968 53.7004L59.2362 53.0459C59.2831 53.4785 59.3459 53.8039 59.3484 54.1305C59.3583 55.9116 59.3484 57.6938 59.357 59.4748C59.357 59.9839 59.431 60.4929 59.4729 61.0401C59.4729 61.0401 59.4273 61.1129 59.394 61.1055C58.5645 60.944 57.7683 61.0956 56.9462 61.2435C55.562 61.49 54.3579 60.6963 53.9129 59.4033C53.7168 58.7968 53.7308 58.142 53.9526 57.5444C54.1745 56.9469 54.5912 56.4416 55.1356 56.11C55.4806 55.8997 55.8716 55.7765 56.2748 55.751C56.6781 55.7254 57.0815 55.7983 57.4503 55.9633C57.6278 56.036 57.8028 56.1112 58.0382 56.2098ZM58.1159 56.9715C56.8007 55.6959 55.6631 56.0028 55.1972 57.6556C55.0803 58.0563 55.0439 58.4761 55.09 58.8909C55.1361 59.3058 55.2639 59.7074 55.4659 60.0726C55.8086 60.7246 56.3287 61.0204 56.9166 60.923C57.2348 60.8828 57.5284 60.731 57.7452 60.4948C57.9621 60.2585 58.0882 59.953 58.1011 59.6326C58.1602 58.723 58.1146 57.806 58.1146 56.9715H58.1159Z" fill="white"/>
<path d="M53.0983 60.5879C52.8518 60.7112 52.4943 60.8923 52.0925 61.0969L51.6439 60.9071C50.9931 61.0575 50.473 61.2485 49.9417 61.2855C49.0087 61.3496 48.3049 60.864 48.0708 59.9642C47.8994 59.3048 47.8674 58.6085 47.7996 57.9256C47.7355 57.2785 47.7072 56.6278 47.6566 55.8845H49.0962C49.0703 56.9125 49.0334 57.8776 49.0284 58.8426C49.0306 59.1872 49.072 59.5304 49.1517 59.8656C49.3255 60.6199 49.7519 60.9614 50.4002 60.9108C51.1965 60.848 51.7375 60.3648 51.7425 59.6265C51.7499 58.4297 51.7092 57.2317 51.687 55.8882C52.0457 55.659 52.5781 55.749 53.0551 55.8882C53.0169 56.7103 52.9516 57.4733 52.9565 58.2301C52.9652 58.9647 53.0428 59.6955 53.0983 60.5879Z" fill="white"/>
<path d="M65.6899 55.7747C66.8855 55.6255 68.4015 56.7065 68.4569 58.4862C68.5062 60.0491 67.2848 61.2755 65.6948 61.2915C65.3271 61.3 64.9613 61.2352 64.6188 61.1009C64.2764 60.9665 63.9641 60.7653 63.7002 60.509C63.4363 60.2527 63.2261 59.9464 63.0819 59.608C62.9376 59.2696 62.8622 58.9059 62.86 58.538C62.8588 56.9912 64.1012 55.7796 65.6899 55.7747ZM67.2355 58.5405C67.0494 57.9365 66.9582 57.3215 66.6784 56.8149C66.1854 55.9226 65.3423 55.9139 64.7384 56.7188C64.0371 57.6506 64.0543 59.4969 64.7717 60.3807C65.3768 61.1276 66.21 61.1128 66.6673 60.2697C66.9434 59.7508 67.0432 59.1407 67.2355 58.5405Z" fill="white"/>
<path d="M60.5156 56.4995L61.9836 55.9104C62.0551 57.6902 62.1216 59.3775 62.1931 61.1659H60.6956C60.9137 59.5772 61.1393 58.0599 60.5156 56.4995Z" fill="white"/>
<path d="M62.0317 54.6384C62.0317 55.1129 61.8382 55.4322 61.381 55.3841C61.2619 55.3599 61.1502 55.3078 61.0551 55.2322C60.96 55.1566 60.8841 55.0595 60.8337 54.949C60.8195 54.8304 60.8345 54.71 60.8775 54.5985C60.9204 54.487 60.99 54.3877 61.0802 54.3093C61.4426 54.0616 61.7803 54.2107 62.0317 54.6384Z" fill="white"/>
</svg>
