<svg xmlns="http://www.w3.org/2000/svg" viewBox="0 0 782.19 328.96"><defs><style>.cls-1{fill:#ffffff;}</style></defs><g id="Layer_2" data-name="Layer 2"><g id="Layer_1-2" data-name="Layer 1"><path class="cls-1" d="M420.46,252.4l1-.44a9.37,9.37,0,0,0,2.45-1.56,18.17,18.17,0,0,0,2.78-3.34,19.54,19.54,0,0,0,2.45-5.89A41.88,41.88,0,0,0,430,232v-51.4c0-11.91-1.34-21.15-4-27.82s-5.9-11.35-9.79-14.24a27.12,27.12,0,0,0-11.79-5.12,47.78,47.78,0,0,0-8.13-.78h-1.44c-12.13,0-20.92,2.89-26.49,8.68s-8.45,14.57-8.68,26l-.11,65.77a33,33,0,0,0,1,8.9,19.38,19.38,0,0,0,2.45,5.67,9.72,9.72,0,0,0,2.78,3.12,7,7,0,0,0,2.45,1.22l1,.33H332.78l1-.44a9.37,9.37,0,0,0,2.45-1.56,13.44,13.44,0,0,0,2.89-3.45,23.21,23.21,0,0,0,2.34-5.89,34,34,0,0,0,1-9l-.11-75.44a55,55,0,0,0-1-11.79,18.32,18.32,0,0,0-2.23-6,6.46,6.46,0,0,0-2.45-2l-1.11-.12,24.14-6.56V142a46.6,46.6,0,0,1,15.36-8.56A58.78,58.78,0,0,1,395,130.34a59.77,59.77,0,0,1,17.47,2.89,53.09,53.09,0,0,1,17.24,9.24,48,48,0,0,1,12.8,16.58c3.23,6.79,4.79,14.91,4.79,24.37v50.29a32.58,32.58,0,0,0,1,8.9,14.59,14.59,0,0,0,2.33,5.46A10.23,10.23,0,0,0,453.5,251a7.13,7.13,0,0,0,2.45,1.22l.89.22Z"/><path class="cls-1" d="M482.37,252.4l1-.44a9.52,9.52,0,0,0,2.44-1.56,13.45,13.45,0,0,0,2.9-3.45,22.87,22.87,0,0,0,2.33-5.89,33.59,33.59,0,0,0,1-9l-.11-75.11c0-7.78-.89-13.35-2.67-16.8-1.22-2.33-2.56-3.45-4.11-3.45l24.14-6.56L509.19,233a33.54,33.54,0,0,0,1,9,19.38,19.38,0,0,0,2.45,5.67,9.72,9.72,0,0,0,2.78,3.12,7,7,0,0,0,2.45,1.22l1,.33Zm8.46-137.86a12.1,12.1,0,1,1,8.57,3.56A11.76,11.76,0,0,1,490.83,114.54Z"/><path class="cls-1" d="M547.86,252.4l1-.44a9.71,9.71,0,0,0,2.45-1.56A13.44,13.44,0,0,0,554.2,247a23.21,23.21,0,0,0,2.34-5.89,34,34,0,0,0,1-9l-.11-75.33c0-6.9-.67-12-2.12-15.46a10.63,10.63,0,0,0-2.45-3.79,3.29,3.29,0,0,0-1.89-.78h-.33l24.14-6.56V145.7c8.13-10.24,20.14-15.36,36.17-15.36a61,61,0,0,1,15.46,2c5.12,1.45,11.13,4.34,18,8.91L638.1,156.6a35.9,35.9,0,0,0-10-13.91,38,38,0,0,0-12.68-7,40.57,40.57,0,0,0-10.24-1.89q-10.18,0-16.69,5.34a33.36,33.36,0,0,0-10,14.69A61.91,61.91,0,0,0,574.78,175L574.67,232a34,34,0,0,0,1,9,19.65,19.65,0,0,0,2.45,5.89,11.39,11.39,0,0,0,2.78,3.45,9.37,9.37,0,0,0,2.45,1.56l1,.44Z"/><path class="cls-1" d="M683.6,244.28a65.19,65.19,0,0,1-23.81-22.14,57.24,57.24,0,0,1,0-61.31,64.82,64.82,0,0,1,23.81-22,70.18,70.18,0,0,1,66,0,64.49,64.49,0,0,1,23.7,22,57.24,57.24,0,0,1,0,61.31,64.86,64.86,0,0,1-23.7,22.14,70.18,70.18,0,0,1-66,0Zm45.74,2.56c12.79-3.45,22.36-11.35,28.59-23.81a57.4,57.4,0,0,0,6.12-26.37,73.94,73.94,0,0,0-1.78-16c-3.89-15.69-11.46-27.71-22.47-36.17-8.46-6.56-17.58-9.79-27.27-9.79a47.83,47.83,0,0,0-8.79.89C691,139,681.38,146.92,675.15,159.38A57.46,57.46,0,0,0,669,185.75a74.1,74.1,0,0,0,1.78,16c3.89,15.69,11.46,27.7,22.47,36.16,8.35,6.57,17.36,9.79,27,9.79A49.24,49.24,0,0,0,729.34,246.84Z"/><path class="cls-1" d="M287.78,77.24a135.9,135.9,0,0,0-24.19-27.42c-1.84-1.6-3.73-3.16-5.67-4.66a137.69,137.69,0,0,0-27-16.43c-2.56-1.19-5.16-2.29-7.8-3.32-1-.43-2-.85-3-1.26-2.69-1.07-5.45-2.11-8.21-3.07s-5.56-1.86-8.34-2.79-5.55-1.89-8.3-2.88-5.54-1.93-8.33-2.85-5.59-1.79-8.41-2.61a141.73,141.73,0,0,0-17.21-4,79.41,79.41,0,0,0-17.71-1c-1.48.1-3,.25-4.43.45l-1.07.13c-.35.05-.7.07-1,.11-.7,0-1.41.09-2.11.08a37.47,37.47,0,0,1-8.45-1c-2.8-.62-5.59-1.45-8.42-2.22a77.39,77.39,0,0,0-8.67-2,41.64,41.64,0,0,0-9-.51,40.62,40.62,0,0,0-8.9,1.51,50.68,50.68,0,0,0-8.38,3.26c-.34.15-.67.33-1,.5s-.66.33-1,.51l-1,.54c-.32.19-.66.37-1,.58A34.78,34.78,0,0,0,75.5,9.62a80.14,80.14,0,0,0-6.42,6.18,73.84,73.84,0,0,1-6.23,5.94,33.68,33.68,0,0,1-7.09,4.52,40.17,40.17,0,0,1-8,2.68c-2.79.65-5.66,1.11-8.57,1.74a41,41,0,0,0-8.63,2.75,30.87,30.87,0,0,0-7.63,5,43.21,43.21,0,0,0-6,6.73,37.93,37.93,0,0,0-4.49,7.89A35.61,35.61,0,0,0,10,61.85a37.28,37.28,0,0,0-.1,9.08c.08.75.19,1.5.32,2.25.06.37.14.75.21,1.12l.21,1c.26,1.42.5,2.83.67,4.25A33.39,33.39,0,0,1,11.38,88,17.29,17.29,0,0,1,11,90,14.55,14.55,0,0,1,10.39,92a18,18,0,0,1-1.9,3.64c-.77,1.17-1.66,2.29-2.55,3.48a33.22,33.22,0,0,0-2.55,3.74c-.38.66-.74,1.35-1.06,2s-.6,1.41-.84,2.14a26.68,26.68,0,0,0-1.07,4.45,43.56,43.56,0,0,0-.33,9c.09,1.49.21,3,.39,4.44s.37,2.92.63,4.39a54.56,54.56,0,0,0,2.2,8.65,74.5,74.5,0,0,0,3.38,8.21c2.54,5.34,5.57,10.38,8.44,15.45s5.57,10.21,7,15.77a48.91,48.91,0,0,0,3.13,8.36,50.94,50.94,0,0,0,4.6,7.64,157.64,157.64,0,0,0,11.48,13.41,161.41,161.41,0,0,1,11.15,13.34c.43.58.86,1.16,1.27,1.76l1,1.44.24.34,2.51,3.61c1.69,2.4,3.39,4.79,5.14,7.15s3.54,4.7,5.4,7,3.78,4.53,5.79,6.7a123.22,123.22,0,0,0,12.95,12.08q3.45,2.77,7.06,5.32c2.41,1.69,4.85,3.33,7.34,4.88s5,3.06,7.56,4.51c1.19.68,2.39,1.34,3.6,2q2.1,1,4.23,2A137.56,137.56,0,0,0,287.78,77.24ZM47.62,185.93q.91,3.23,2,6.41c.72,2.12,1.49,4.22,2.33,6.3a120.12,120.12,0,0,0,5.68,12.16c1.48,2.78,3.06,5.48,4.62,8.13l-.18.1-.71-.89-1.16-1.46c-.39-.49-.78-1-1.16-1.46-1.55-1.95-3-3.92-4.55-5.91s-2.91-4-4.27-6.06-2.63-4.18-3.78-6.35-2.2-4.41-3.14-6.7-1.79-4.64-2.64-7-1.68-4.74-2.54-7.12-1.76-4.74-2.67-7.1l-.7-1.77L34,165.45c-.23-.58-.5-1.21-.76-1.81s-.56-1.18-.84-1.76c-1.15-2.31-2.4-4.51-3.57-6.72s-2.32-4.4-3.32-6.62a46.09,46.09,0,0,1-2.48-6.78,26.92,26.92,0,0,1-1-6.9,20.52,20.52,0,0,1,1.12-6.7,23.34,23.34,0,0,1,3.2-6.06c.16-.23.34-.47.52-.7l.57-.73.61-.81.58-.83a31.62,31.62,0,0,0,2.08-3.5,32.6,32.6,0,0,0,2.74-7.66,46.61,46.61,0,0,0,1-7.89c.26-5.23,0-10.27.16-15.1a40.22,40.22,0,0,1,.86-7,26,26,0,0,1,.94-3.3c.19-.53.41-1.06.63-1.58.12-.26.23-.51.36-.77l.39-.79a31,31,0,0,1,3.72-5.86,25,25,0,0,1,2.31-2.51,25.29,25.29,0,0,1,2.62-2.21c3.7-2.75,8.27-4.77,12.78-7.41A55.55,55.55,0,0,0,65.86,49c.52-.42,1-.83,1.53-1.28l.75-.66.73-.68c1-.91,1.86-1.83,2.76-2.77,3.58-3.74,6.74-7.71,10-11.3a53,53,0,0,1,5.21-5,35.85,35.85,0,0,1,5.87-3.94,37.13,37.13,0,0,1,6.58-2.7l.86-.26.89-.25c.59-.16,1.17-.3,1.76-.44a30,30,0,0,1,3.47-.61A23.92,23.92,0,0,1,109.8,19c.29,0,.58,0,.87,0l1,.05,1.91.11c2.54.12,5.1.18,7.66.15s5.13-.17,7.69-.44c1.28-.13,2.55-.31,3.82-.5s2.52-.4,3.75-.62,2.46-.42,3.68-.59,2.43-.3,3.64-.39a49.75,49.75,0,0,1,7.32.12c2.46.21,4.91.57,7.36,1s4.91.9,7.34,1.47l1.84.42c.68.16,1.33.26,2,.35,1.29.18,2.56.29,3.83.4l7.54.58c2.49.22,5,.47,7.42.81a47.38,47.38,0,0,1,7.11,1.48l.84.27.86.3c.59.2,1.16.43,1.73.65s1.13.47,1.7.7l1.69.76c2,.92,3.92,1.92,5.93,2.9-.87-.31-1.75-.61-2.64-.88a60.49,60.49,0,0,0-13.41-2.51c-2.27-.19-4.53-.28-6.77-.33s-4.46-.06-6.67-.07-4.4,0-6.59,0L165.61,25,162.34,25H160.7l-1.65,0q-3.3.06-6.57.2c-4.37.17-8.73.41-13,.57-1.07,0-2.15.07-3.2.08h-1.56c-.26,0-.48,0-.73,0h-.18l-.21,0-.43,0a39.12,39.12,0,0,0-7,.14,28.17,28.17,0,0,0-7,1.73,27.46,27.46,0,0,0-6.38,3.56,43.14,43.14,0,0,0-5.25,4.67c-1.6,1.64-3.07,3.29-4.53,4.87s-2.88,3.13-4.35,4.56a51.42,51.42,0,0,1-4.59,4,41.16,41.16,0,0,1-5,3.22c-.87.47-1.76.91-2.66,1.32s-1.82.8-2.76,1.14-1.88.67-2.84,1L80,56.1l-.81.24a19.17,19.17,0,0,0-1.93.71,23.89,23.89,0,0,0-3.45,1.8,32.55,32.55,0,0,0-3,2.15,43.93,43.93,0,0,0-5.24,4.94c-.8.89-1.56,1.8-2.29,2.75-.36.47-.73,1-1.06,1.44l-.48.68-.27.37-.13.19-.14.21a21.3,21.3,0,0,0-1.91,3.56A22,22,0,0,0,58.1,79a42.22,42.22,0,0,0-.7,7.19c-.07,2.2-.12,4.24-.34,6.19-.12,1-.26,1.93-.44,2.87s-.43,1.87-.7,2.79l-.21.69c-.07.21-.14.43-.22.63-.16.42-.31.84-.49,1.24a18,18,0,0,1-1.28,2.36A34.86,34.86,0,0,1,50,107.55a61,61,0,0,0-4.44,5.34,26.44,26.44,0,0,0-3.43,6.61,31.43,31.43,0,0,0-1.52,7.09q-.18,1.77-.21,3.51c0,1.16,0,2.32.05,3.46.1,2.29.34,4.54.63,6.76.15,1.12.32,2.22.51,3.33l.28,1.64.25,1.55a125.11,125.11,0,0,1,1,12.75c.11,2.18.2,4.38.39,6.63.11,1.12.22,2.25.4,3.41l.14.86.15.82.3,1.64c.42,2.18.9,4.35,1.41,6.52S47,183.79,47.62,185.93Zm8.45,34.31c-.43-.61-.88-1.19-1.33-1.79-.89-1.18-1.82-2.33-2.77-3.47-.47-.57-1-1.13-1.44-1.69s-1-1.1-1.47-1.65c-2-2.18-4-4.3-6.09-6.38a115.38,115.38,0,0,1-11.62-13,49.2,49.2,0,0,1-4.44-7.37,47.72,47.72,0,0,1-3-8.05c-.4-1.41-.82-2.87-1.36-4.25s-1.1-2.77-1.73-4.11c-1.25-2.69-2.65-5.28-4.08-7.84-2.87-5.12-5.85-10.13-8.32-15.36a70.1,70.1,0,0,1-3.25-8A52.51,52.51,0,0,1,3.11,129c-.24-1.41-.42-2.86-.57-4.29s-.26-2.87-.33-4.31a41,41,0,0,1,.4-8.52,24.13,24.13,0,0,1,1-4.06c.23-.66.5-1.3.78-1.93s.63-1.23,1-1.83a35.65,35.65,0,0,1,2.42-3.48c.89-1.14,1.83-2.3,2.69-3.56a20.56,20.56,0,0,0,2.19-4.09,17.56,17.56,0,0,0,.72-2.23,18.09,18.09,0,0,0,.47-2.28,35.38,35.38,0,0,0,0-9.08c-.18-1.49-.41-3-.67-4.42L13,73.77c-.06-.35-.13-.69-.19-1-.11-.69-.22-1.39-.29-2.09a34.89,34.89,0,0,1,.13-8.42,32.53,32.53,0,0,1,2.21-8.1A34.65,34.65,0,0,1,19,46.81a41,41,0,0,1,5.67-6.29,28.7,28.7,0,0,1,7-4.6,38.66,38.66,0,0,1,8.06-2.56c2.81-.61,5.71-1.08,8.61-1.76a42.75,42.75,0,0,0,8.57-2.87,35.65,35.65,0,0,0,7.66-4.9c4.68-3.84,8.27-8.57,12.61-12.18a31,31,0,0,1,3.4-2.47c.29-.19.6-.35.9-.53s.63-.35.94-.52l1-.5.95-.49A48.74,48.74,0,0,1,92.26,4a37.63,37.63,0,0,1,8.34-1.49,39,39,0,0,1,8.49.42,76.63,76.63,0,0,1,8.43,1.86c2.81.75,5.64,1.56,8.55,2.19a40.46,40.46,0,0,0,9,1c.75,0,1.51-.06,2.27-.12l1.13-.12,1.1-.15c1.42-.19,2.86-.35,4.29-.45A78.66,78.66,0,0,1,161.07,8a127.61,127.61,0,0,1,17,3.84c5.59,1.62,11.09,3.55,16.56,5.58,2.73,1,5.45,2.09,8.12,3.26s5.34,2.38,8,3.54c1.34.59,2.69,1.17,4,1.72q1.07.45,2.13.87h0l-.72-.25-.82-.29-.83-.33-3.4-1.37c-2.32-.94-4.74-1.81-7.18-2.62l-1.84-.59c-.62-.19-1.23-.39-1.85-.57s-1.23-.37-1.85-.54l-.93-.27-1-.26a52.67,52.67,0,0,0-7.74-1.16c-2.56-.21-5.1-.32-7.62-.4s-5-.16-7.53-.3c-1.24-.07-2.48-.17-3.68-.32-.59-.08-1.19-.16-1.74-.29l-1.83-.43c-1.23-.29-2.47-.55-3.71-.83-.62-.14-1.24-.26-1.86-.39l-.94-.19-.93-.17c-2.5-.47-5-.88-7.58-1.14a55.52,55.52,0,0,0-7.75-.26c-1.3.06-2.59.16-3.87.31s-2.54.34-3.79.52-2.47.37-3.7.53-2.45.28-3.67.36q-3.69.27-7.39.19c-2.47-.05-4.94-.19-7.42-.38l-1.85-.17-.94-.08L110,15a30.44,30.44,0,0,0-4,.05,34.82,34.82,0,0,0-4,.58c-.64.13-1.28.27-1.91.42l-.94.23-1,.26a41.62,41.62,0,0,0-7.45,2.79c-1.19.6-2.36,1.25-3.49,2a39.91,39.91,0,0,0-3.27,2.3,59,59,0,0,0-5.83,5.29c-1.81,1.86-3.51,3.75-5.18,5.63s-3.33,3.69-5,5.43c-.86.87-1.73,1.74-2.61,2.53l-.66.6-.68.57c-.45.39-.92.75-1.38,1.12a47.73,47.73,0,0,1-5.95,4C54.49,50,52.28,51.07,50,52.27c-1.13.6-2.28,1.23-3.41,1.92s-2.26,1.42-3.35,2.23a31.78,31.78,0,0,0-3.15,2.65c-.26.23-.5.47-.74.72s-.49.49-.71.75c-.46.51-.92,1-1.34,1.57A36.83,36.83,0,0,0,33,69l-.44.9-.42,1c-.27.64-.52,1.28-.74,1.93a31.06,31.06,0,0,0-1.1,4,45.46,45.46,0,0,0-.9,8c-.18,5.23.24,10.25.07,15.08a41.92,41.92,0,0,1-.79,7.07,28.19,28.19,0,0,1-2.19,6.57,30,30,0,0,1-1.71,3l-.49.72c-.16.24-.33.47-.51.71l-.57.77c-.2.27-.4.54-.58.82A27.79,27.79,0,0,0,19,126.76a24.79,24.79,0,0,0-1.17,8.15,28.78,28.78,0,0,0,.39,4.05,33.81,33.81,0,0,0,.9,3.92A68.38,68.38,0,0,0,25.48,157c1.23,2.21,2.48,4.39,3.6,6.56.28.55.55,1.09.8,1.64s.49,1.07.73,1.66l.73,1.72.71,1.74c1.9,4.62,3.56,9.33,5.28,14.07.86,2.37,1.76,4.75,2.7,7.12s2,4.73,3.07,7c.27.58.55,1.16.84,1.73s.57,1.16.87,1.73.59,1.14.9,1.7l.45.85.47.84q1.88,3.36,3.93,6.59,3.21,5,6.76,9.81h0l-.07,0C56.86,221.33,56.46,220.78,56.07,220.24Zm148,49.88a120.92,120.92,0,0,1-107-23.27,119.49,119.49,0,0,1-27.49-31.72l-.23-.38h0c-1.72-2.65-3.45-5.23-5.1-7.83-2.3-3.58-4.46-7.22-6.4-11a90.4,90.4,0,0,1-5-11.65c-.69-2-1.32-4-1.87-6.1s-1-4.13-1.43-6.22l-.28-1.57-.15-.79-.11-.75c-.16-1-.26-2-.35-3.08-.18-2.09-.27-4.24-.35-6.41-.16-4.34-.31-8.78-.9-13.27l-.47-3.26c-.14-1.05-.27-2.1-.37-3.15a60,60,0,0,1-.3-6.26c0-1,0-2.05.11-3.07s.17-2,.33-3a24.46,24.46,0,0,1,1.53-5.57A20.13,20.13,0,0,1,51.09,117a56.16,56.16,0,0,1,4.19-4.44A41.89,41.89,0,0,0,60,107.22a23.2,23.2,0,0,0,2-3.29c.3-.57.56-1.16.81-1.76.12-.29.23-.6.34-.9l.3-.86A38.11,38.11,0,0,0,65,93.33c.32-2.37.41-4.69.52-6.83a33.59,33.59,0,0,1,.6-5.79,13,13,0,0,1,1.92-4.57l.09-.13.1-.15.21-.29.46-.65c.3-.42.58-.8.88-1.19.6-.77,1.23-1.53,1.89-2.27a34.79,34.79,0,0,1,4.22-4,21,21,0,0,1,4.58-2.88c.39-.16.77-.31,1.14-.43l1.58-.5c1.11-.38,2.22-.77,3.31-1.21a46.47,46.47,0,0,0,6.37-3.14,47.39,47.39,0,0,0,5.81-4.09,68,68,0,0,0,9.49-9.93c2.78-3.41,5.34-6.71,8.33-9.21A21.91,21.91,0,0,1,121.35,33a22.33,22.33,0,0,1,5.55-1.68,31.51,31.51,0,0,1,6-.42l.81,0c.3,0,.62,0,.9,0h.87l.84,0c1.13,0,2.22-.09,3.32-.14,4.39-.24,8.72-.55,13.05-.79,2.16-.12,4.32-.23,6.47-.31s4.33-.18,6.49-.28,4.34-.2,6.5-.22,4.32,0,6.46.17a57.37,57.37,0,0,1,12.52,2.17c2,.59,4,1.26,5.94,2S201,35,202.93,35.76l1.46.58c.49.2,1,.4,1.47.59l1.47.59,1.54.6c1.22.47,2.44.94,3.66,1.39h0l.31.11a121.73,121.73,0,0,1,77,83.37A120.57,120.57,0,0,1,204.05,270.12Z"/><path class="cls-1" d="M547.53,322.73l2.18-2.52a16,16,0,0,0,12.22,5.7c8.05,0,10.34-4.47,10.34-7.82,0-11.52-23.51-5.52-23.51-19.22,0-6.4,5.76-10.46,12.87-10.46,5.88,0,10.23,2.06,13.28,5.53l-2.23,2.46a14.06,14.06,0,0,0-11.22-4.93c-5.23,0-9.17,3-9.17,7.23,0,10.05,23.51,4.52,23.51,19.15,0,5.06-3.35,11.11-13.93,11.11C555.4,329,550.53,326.38,547.53,322.73Z"/><path class="cls-1" d="M599.54,328.26V292.11H586.73v-3.05h29v3.05H603v36.15Z"/><path class="cls-1" d="M628.58,313.21V289.06H632v24.09c0,7.94,4.17,12.76,11.87,12.76s11.87-4.82,11.87-12.76V289.06h3.41v24.15c0,9.7-5.17,15.75-15.28,15.75S628.58,322.85,628.58,313.21Z"/><path class="cls-1" d="M674.78,328.26v-39.2H687.3c12.16,0,19.8,8.87,19.8,19.63s-7.64,19.57-19.8,19.57Zm28.8-19.57c0-9.17-5.88-16.58-16.28-16.58h-9.17V325.2h9.17C697.64,325.2,703.58,317.85,703.58,308.69Z"/><path class="cls-1" d="M721.33,328.26v-39.2h3.35v39.2Z"/><path class="cls-1" d="M738.85,308.69c0-11.46,7.52-20.28,19-20.28s19,8.82,19,20.28-7.57,20.27-19,20.27S738.85,320.15,738.85,308.69Zm34.55,0c0-10-6.11-17.22-15.51-17.22s-15.52,7.23-15.52,17.22,6,17.22,15.52,17.22S773.4,318.56,773.4,308.69Z"/></g></g></svg>