<svg width="537" height="483" viewBox="0 0 537 483" fill="none" xmlns="http://www.w3.org/2000/svg">
<path d="M270.357 1.09199C302.483 1.69115 334.5 4.16182 365.407 13.5329C424.953 31.5815 470.885 67.5308 503.132 120.748C523.476 154.321 534.914 190.889 536.705 230.056C539.559 292.456 521.753 348.541 481.374 396.473C436.444 449.858 378.636 478.975 308.959 482.644C251.487 485.673 199.327 469.361 153.031 434.927C123.235 412.765 100.857 384.537 83.1116 352.015C73.3568 334.141 61.2324 317.553 49.9225 300.555C48.0106 297.64 44.8398 295.499 42.1537 293.136C35.94 287.602 29.2349 282.553 23.5126 276.561C7.53066 259.778 1.04095 240.033 5.20137 216.814C9.91381 190.472 8.74917 164.304 2.10462 138.265C-1.74613 123.178 3.8011 110.306 15.1446 100.653C24.3002 92.8635 34.4859 86.1113 44.8465 79.9716C63.3129 69.1466 80.0774 55.651 94.5965 39.9226C98.8444 35.2842 103.119 30.6592 107.684 26.344C118.886 15.7746 132.835 11.143 147.679 8.91466C158.073 7.35282 168.548 6.25549 179.05 5.54862C202.72 3.85887 226.41 2.45187 250.107 1.14585C256.839 0.775587 263.605 1.09199 270.357 1.09199ZM294.701 453.837C346.167 453.379 390.296 438.151 428.716 407.386C466.314 377.314 491.701 338.786 501.88 291.675C520.009 207.78 495.861 136.837 430.917 81.2305C384.291 41.3565 328.846 27.1586 268.048 34.9812C251.548 37.1086 234.926 40.1851 220.217 48.4992C204.821 57.1971 189.438 65.5919 171.881 69.0926C169.744 69.6193 167.665 70.3567 165.674 71.294C154.128 76.1949 145.592 83.5127 142.394 96.5191C138.725 111.431 130.276 123.764 116.981 131.526C106.102 137.867 100.581 147.178 97.3836 158.535C92.9539 174.241 88.3626 189.92 84.4782 205.767C79.4157 226.421 81.7854 247.284 86.444 267.453C90.8467 286.518 98.05 304.951 104.176 323.612C106.028 329.267 107.838 335.056 110.612 340.274C121.781 361.456 136.479 380.58 154.074 396.823C194.433 434.025 242.116 452.834 294.701 453.837ZM138.288 411.102L139.331 410.274C138.308 409.116 137.311 407.904 136.255 406.807C114.799 385.264 98.3732 360.228 85.6496 332.848C76.7834 313.77 69.3109 294.045 61.2526 274.596C54.1 257.744 51.7559 239.24 54.4801 221.136C57.5567 199.856 58.8088 178.267 53.9348 156.859C53.3225 153.62 53.2951 150.298 53.854 147.05C56.9104 125.783 67.372 109.014 85.4476 97.3875C96.1963 90.5226 105.632 81.7932 113.312 71.6104C118.697 64.4879 124.197 57.2307 130.775 51.293C144.044 39.3369 160.739 35.2236 178.02 33.278C190.811 31.8508 203.69 31.1574 216.393 29.2859C237.518 26.1891 258.428 20.9718 279.641 19.2484C314.742 16.394 349.749 17.902 383.355 30.5313C384.544 30.9117 385.753 31.2264 386.977 31.4738C371.338 22.0489 355.282 13.8493 337.389 10.2139C308.138 4.27626 278.698 1.75174 248.795 4.22914C219.039 6.69308 189.155 7.63556 159.413 10.187C136.005 12.2066 115.567 20.514 99.8744 39.5994C84.0945 58.7925 64.4032 73.7243 42.6519 85.9362C35.0094 90.3033 27.7429 95.2977 20.9275 100.868C9.6378 109.976 2.13828 121.65 5.91497 136.642C13.0442 164.951 13.327 193.232 8.29139 221.776C5.27542 238.943 9.48969 254.44 20.1533 267.823C26.2806 275.586 33.2581 282.638 40.9554 288.848C49.6979 295.789 57.441 303.904 63.9656 312.962C69.4859 320.603 74.7369 328.446 80.1831 336.134C92.4018 353.435 101.941 372.615 116.859 388.024C124.164 395.564 131.158 403.4 138.288 411.102ZM331.363 24.9437C308.939 20.4669 286.548 18.6964 263.874 22.6817C235.27 27.7039 207.002 34.51 177.939 37.0412C154.229 39.1012 134.235 49.0445 120.717 69.8937C111.804 83.6541 99.4772 93.8532 86.1949 103.554C65.9987 118.264 55.564 138.15 60.8083 164.096C61.4707 167.01 61.7848 169.993 61.744 172.982C61.0304 190.553 61.0035 208.218 59.0175 225.654C57.4153 239.791 58.3443 253.114 62.8817 266.477C73.8537 298.405 89.2934 328.618 108.741 356.215C115.035 365.209 122.252 373.584 129.327 381.999C132.693 386.038 136.733 389.445 140.476 393.141C140.344 391.522 139.684 389.992 138.597 388.785C126.533 373.301 114.51 357.818 107.562 339.015C102.85 326.352 97.4644 313.924 91.7286 301.692C81.1324 279.059 74.7234 255.436 73.2424 230.48C72.6365 220.201 73.1885 210.096 75.8814 200.099C79.7254 185.847 83.2866 171.521 87.0566 157.256C90.7996 143.166 97.1143 131.075 110.7 123.595C121.727 117.537 128.62 107.573 132.848 95.7853C134.12 92.2375 135.13 88.5618 136.746 85.1755C143.148 71.8056 155.192 65.7198 168.548 62.199C180.39 59.082 192.588 57.1903 203.555 51.4277C218.366 43.6319 234.018 38.2665 249.946 33.177C271.057 26.445 292.358 22.9578 314.439 24.0753L331.363 24.9437Z" fill="white"/>
</svg>
