<svg width="204" height="183" viewBox="0 0 204 183" fill="none" xmlns="http://www.w3.org/2000/svg">
<path d="M102.552 0.047554C114.684 0.273808 126.774 1.20679 138.445 4.7455C160.931 11.5611 178.276 25.1363 190.453 45.2322C198.136 57.91 202.455 71.7191 203.131 86.5095C204.209 110.073 197.485 131.252 182.237 149.352C165.27 169.512 143.441 180.506 117.129 181.892C95.4266 183.036 75.7298 176.876 58.2473 163.873C46.9956 155.504 38.5454 144.845 31.8442 132.564C28.1606 125.814 23.5822 119.55 19.3113 113.131C18.5893 112.03 17.392 111.222 16.3776 110.33C14.0312 108.24 11.4992 106.333 9.33835 104.071C3.30322 97.7332 0.852563 90.277 2.42363 81.509C4.20315 71.5615 3.76336 61.6801 1.25423 51.8469C-0.199897 46.1499 1.89486 41.2893 6.17842 37.6438C9.63578 34.7025 13.4821 32.1527 17.3945 29.8342C24.3678 25.7465 30.6985 20.6502 36.1812 14.7108C37.7853 12.9593 39.3996 11.2128 41.1232 9.58326C45.3534 5.59204 50.6207 3.84302 56.2262 3.00156C60.1514 2.41178 64.107 1.9974 68.0728 1.73047C77.0111 1.09239 85.957 0.561073 94.9055 0.0678914C97.4476 -0.0719283 100.003 0.047554 102.552 0.047554ZM111.745 171.014C131.18 170.841 147.844 165.091 162.352 153.473C176.55 142.117 186.137 127.568 189.98 109.778C196.826 78.0974 187.708 51.308 163.183 30.3096C145.576 15.2523 124.639 9.89086 101.68 12.8449C95.4495 13.6482 89.1728 14.81 83.6182 17.9496C77.8042 21.234 71.9954 24.4041 65.3654 25.7261C64.5585 25.925 63.7734 26.2034 63.0215 26.5574C58.6616 28.4081 55.4382 31.1714 54.2306 36.0829C52.8451 41.7138 49.6547 46.3711 44.6339 49.3022C40.5258 51.6969 38.4412 55.2128 37.2336 59.5014C35.5609 65.4323 33.8271 71.3531 32.3603 77.3373C30.4486 85.1367 31.3434 93.0149 33.1026 100.631C34.7652 107.831 37.4853 114.791 39.7987 121.838C40.4978 123.974 41.1816 126.16 42.229 128.13C46.4466 136.129 51.9969 143.35 58.6413 149.484C73.8817 163.532 91.8879 170.635 111.745 171.014ZM52.6799 154.876L53.0739 154.564C52.6875 154.126 52.3113 153.669 51.9122 153.254C43.8103 145.119 37.6073 135.665 32.8026 125.326C29.4546 118.121 26.6328 110.673 23.5898 103.329C20.8888 96.9648 20.0036 89.9773 21.0324 83.1411C22.1941 75.1053 22.667 66.9525 20.8264 58.8684C20.5952 57.6455 20.5849 56.391 20.7959 55.1645C21.9501 47.1337 25.9006 40.8012 32.7264 36.4108C36.7853 33.8185 40.3486 30.5221 43.2484 26.6768C45.2822 23.9872 47.3591 21.2468 49.8428 19.0046C54.8535 14.4897 61.1581 12.9364 67.6838 12.2017C72.514 11.6628 77.3772 11.4009 82.1742 10.6942C90.1516 9.52479 98.0476 7.5546 106.058 6.9038C119.313 5.82592 132.532 6.39537 145.223 11.1645C145.672 11.3081 146.128 11.4269 146.59 11.5204C140.685 7.96135 134.622 4.86498 127.865 3.4922C116.819 1.25 105.702 0.296687 94.4097 1.23221C83.1733 2.16264 71.8886 2.51855 60.6573 3.48203C51.8181 4.24469 44.1001 7.38173 38.1742 14.5888C32.2154 21.8365 24.7795 27.4751 16.5658 32.0866C13.6798 33.7357 10.9358 35.6217 8.36215 37.7251C4.09892 41.1647 1.26694 45.5728 2.6931 51.2343C5.38526 61.9241 5.49204 72.6038 3.59049 83.3826C2.45159 89.8652 4.04299 95.7173 8.0698 100.771C10.3836 103.703 13.0185 106.366 15.9251 108.71C19.2265 111.332 22.1504 114.396 24.6143 117.816C26.6989 120.702 28.6818 123.663 30.7384 126.567C35.3524 133.1 38.9547 140.343 44.5882 146.162C47.3464 149.009 49.9877 151.968 52.6799 154.876ZM125.59 9.05448C117.122 7.36394 108.666 6.69534 100.104 8.20031C89.3025 10.0968 78.6279 12.6669 67.6533 13.6228C58.6998 14.4007 51.1495 18.1555 46.0448 26.0286C42.679 31.2248 38.0243 35.0762 33.0086 38.7395C25.382 44.2941 21.4417 51.8037 23.422 61.6013C23.6722 62.7019 23.7908 63.8283 23.7754 64.9569C23.5059 71.592 23.4957 78.2627 22.7458 84.8469C22.1407 90.1855 22.4916 95.2165 24.205 100.263C28.3483 112.319 34.1786 123.729 41.5223 134.15C43.8992 137.546 46.6244 140.709 49.2963 143.886C50.5674 145.412 52.0927 146.698 53.5061 148.094C53.4564 147.483 53.2072 146.905 52.7968 146.449C48.2413 140.602 43.7009 134.755 41.0774 127.655C39.2979 122.873 37.2642 118.18 35.0982 113.561C31.0968 105.014 28.6767 96.0935 28.1174 86.6697C27.8886 82.7878 28.0971 78.9719 29.1139 75.1968C30.5655 69.815 31.9103 64.4053 33.334 59.0184C34.7474 53.6976 37.132 49.1319 42.2621 46.3075C46.4262 44.0196 49.0293 40.2572 50.6258 35.8058C51.1063 34.4661 51.4876 33.078 52.0978 31.7993C54.5154 26.7506 59.0633 24.4524 64.107 23.1229C68.5787 21.9459 73.1851 21.2315 77.3263 19.0554C82.9191 16.1116 88.8297 14.0854 94.8444 12.1636C102.817 9.62139 110.86 8.30454 119.198 8.72654L125.59 9.05448Z" fill="white"/>
</svg>
