<svg width="77" height="70" viewBox="0 0 77 70" fill="none" xmlns="http://www.w3.org/2000/svg">
<path d="M38.9778 0.808485C43.5587 0.893922 48.1243 1.24623 52.5315 2.5825C61.0225 5.15618 67.5723 10.2824 72.1706 17.8709C75.0716 22.6583 76.7026 27.8728 76.9579 33.4579C77.3649 42.3559 74.8258 50.3534 69.0679 57.1883C62.6611 64.8009 54.4179 68.9527 44.4822 69.4759C36.287 69.9079 28.8491 67.5819 22.2474 62.6717C17.9986 59.5115 14.8077 55.4863 12.2772 50.8487C10.8862 48.3 9.15733 45.9346 7.54458 43.5107C7.27195 43.0951 6.81981 42.7898 6.43678 42.4528C5.55073 41.6637 4.5946 40.9438 3.77863 40.0894C1.49967 37.6962 0.574257 34.8806 1.16752 31.5697C1.83949 27.8133 1.67342 24.0819 0.725932 20.3688C0.17683 18.2175 0.967843 16.382 2.58539 15.0054C3.89094 13.8948 5.34338 12.9319 6.82077 12.0564C9.454 10.5128 11.8446 8.5884 13.9149 6.34558C14.5207 5.68416 15.1302 5.02466 15.7811 4.40932C17.3785 2.90217 19.3675 2.24172 21.4843 1.92397C22.9665 1.70125 24.4602 1.54478 25.9577 1.44398C29.333 1.20303 32.7111 1.0024 36.0902 0.816164C37.0501 0.763366 38.0149 0.808485 38.9778 0.808485ZM42.449 65.3682C49.788 65.3029 56.0805 63.1315 61.5591 58.7444C66.9205 54.4563 70.5405 48.9624 71.992 42.2445C74.5772 30.2814 71.1338 20.1653 61.873 12.2359C55.2243 6.55005 47.318 4.52548 38.6485 5.64096C36.2956 5.94431 33.9254 6.38302 31.8279 7.56858C29.6325 8.80885 27.4389 10.0059 24.9354 10.5051C24.6307 10.5802 24.3342 10.6854 24.0503 10.819C22.4039 11.5179 21.1867 12.5614 20.7307 14.416C20.2075 16.5424 19.0028 18.301 17.1068 19.4079C15.5555 20.3121 14.7683 21.6398 14.3124 23.2592C13.6807 25.4988 13.026 27.7346 12.4721 29.9944C11.7502 32.9396 12.0881 35.9145 12.7524 38.7906C13.3802 41.5092 14.4074 44.1376 15.281 46.7986C15.545 47.605 15.8032 48.4306 16.1987 49.1745C17.7913 52.1951 19.8872 54.922 22.3962 57.2383C28.1512 62.543 34.9507 65.2252 42.449 65.3682ZM20.1451 59.2743L20.2939 59.1563C20.148 58.9912 20.0059 58.8184 19.8552 58.6619C16.7958 55.59 14.4535 52.0199 12.6391 48.1157C11.3749 45.3951 10.3093 42.5824 9.16021 39.8091C8.14028 37.4061 7.80601 34.7674 8.19448 32.186C8.63318 29.1515 8.81174 26.0729 8.11672 23.0202C8.02941 22.5584 8.0255 22.0847 8.1052 21.6215C8.54103 18.589 10.0328 16.1977 12.6103 14.5399C14.143 13.561 15.4886 12.3162 16.5836 10.8641C17.3516 9.8485 18.1359 8.81365 19.0738 7.96696C20.9659 6.26206 23.3466 5.67552 25.8108 5.39809C27.6348 5.19458 29.4712 5.0957 31.2827 4.82883C34.295 4.38724 37.2767 3.64327 40.3016 3.39752C45.3068 2.99049 50.2987 3.20552 55.0908 5.00642C55.2604 5.06066 55.4328 5.10553 55.6073 5.14082C53.3773 3.79686 51.0878 2.62762 48.5362 2.10924C44.3651 1.26255 40.1672 0.902561 35.903 1.25583C31.6599 1.60718 27.3986 1.74157 23.1575 2.1054C19.8197 2.39339 16.9052 3.57799 14.6675 6.2995C12.4174 9.03637 9.60947 11.1656 6.50782 12.907C5.41803 13.5297 4.38186 14.2419 3.41 15.0362C1.80014 16.335 0.730731 17.9996 1.26927 20.1374C2.28588 24.1741 2.3262 28.2069 1.60814 32.2772C1.17808 34.7251 1.77902 36.9349 3.2996 38.8434C4.17333 39.9503 5.1683 40.9559 6.2659 41.8413C7.51256 42.8312 8.61669 43.9883 9.54707 45.2799C10.3342 46.3695 11.083 47.4879 11.8596 48.5841C13.602 51.0513 14.9623 53.7862 17.0895 55.9836C18.1311 57.0587 19.1285 58.1761 20.1451 59.2743ZM47.677 4.20965C44.4793 3.57127 41.2865 3.3188 38.0533 3.8871C33.9744 4.60324 29.9435 5.57376 25.7993 5.93471C22.4183 6.22846 19.5672 7.64633 17.6396 10.6194C16.3686 12.5815 14.6109 14.0359 12.7169 15.4192C9.83698 17.5167 8.34903 20.3525 9.09685 24.0522C9.19131 24.4678 9.23611 24.8932 9.23028 25.3193C9.12853 27.8249 9.12469 30.3438 8.8415 32.8301C8.61303 34.8461 8.7455 36.7458 9.39252 38.6514C10.9571 43.2042 13.1587 47.5125 15.9318 51.4477C16.8294 52.7303 17.8585 53.9244 18.8674 55.1244C19.3474 55.7004 19.9234 56.1861 20.4571 56.7132C20.4383 56.4824 20.3442 56.2641 20.1893 56.0921C18.469 53.8841 16.7545 51.6762 15.7638 48.995C15.0918 47.1893 14.3239 45.4172 13.506 43.673C11.995 40.4455 11.0811 37.077 10.8699 33.5184C10.7835 32.0525 10.8622 30.6116 11.2462 29.1861C11.7944 27.1538 12.3022 25.111 12.8398 23.0769C13.3735 21.0676 14.274 19.3435 16.2112 18.277C17.7836 17.413 18.7666 15.9923 19.3695 14.3114C19.5509 13.8055 19.6949 13.2813 19.9253 12.7985C20.8382 10.892 22.5556 10.0242 24.4602 9.52211C26.1488 9.07765 27.8882 8.80789 29.452 7.98616C31.5639 6.87452 33.7959 6.10943 36.0671 5.38369C39.0776 4.42372 42.1149 3.92646 45.2636 4.08581L47.677 4.20965Z" fill="black"/>
</svg>
