<svg width="36" height="35" viewBox="0 0 36 35" fill="none" xmlns="http://www.w3.org/2000/svg">
<path d="M1.66872 17.2791C1.66872 8.06994 9.12799 0.568684 18.3213 0.500469H18.4475C27.6988 0.500469 35.2268 8.02653 35.2265 17.2777C35.2265 26.5297 27.6988 34.0568 18.4475 34.0568C15.4351 34.0568 12.4914 33.2508 9.91169 31.7231L9.7293 31.6151L9.52485 31.671L0.847773 34.0472L0.846404 34.0476C0.823488 34.0539 0.799575 34.0571 0.775361 34.0571C0.697053 34.0571 0.621774 34.0239 0.569224 33.9643L0.568669 33.9636C0.499465 33.8854 0.480715 33.7746 0.520924 33.6773L0.0589574 33.4864L0.520933 33.6773L3.77516 25.8043L3.86694 25.5822L3.75091 25.3718C2.38774 22.9 1.66872 20.1098 1.66872 17.2791Z" fill="#121A1C" stroke="white"/>
<path d="M25.7831 20.9546L22.0355 18.9968C21.775 18.8608 21.4601 18.8836 21.2221 19.0559L18.0627 21.3442C16.2902 20.0281 15.2267 18.8535 15.2073 18.8321C15.1956 18.819 15.1814 18.8093 15.1689 18.7972C15.1579 18.7861 15.1489 18.7733 15.1364 18.7626C15.1212 18.7494 14.395 18.1083 13.4761 16.8825L15.817 13.6501C15.9889 13.412 16.0121 13.0972 15.8758 12.8367L13.9182 9.08973C13.7207 8.71124 13.2543 8.56419 12.8761 8.76001L9.40809 10.5494C9.07527 10.721 8.91301 11.1061 9.02198 11.4641C10.6231 16.7091 13.7131 19.5703 14.0833 19.8997C14.4815 20.337 18.1468 24.2441 23.4088 25.8505C23.4839 25.8733 23.56 25.8841 23.6351 25.8841C23.9188 25.8841 24.1879 25.7277 24.3236 25.4644L26.1133 21.9967C26.3088 21.6182 26.1617 21.1522 25.7836 20.9546L25.7831 20.9546ZM10.7023 11.6247L12.9006 10.4905L14.2793 13.1293L12.5473 15.5214C11.8941 14.4672 11.2295 13.1643 10.7022 11.6247H10.7023ZM23.2482 24.167C21.8249 23.6671 20.5312 22.9858 19.4165 22.2769L21.7422 20.5923L24.3813 21.971L23.2482 24.167Z" fill="white"/>
</svg>
